<svg width="800" height="800" viewBox="0 0 800 800" fill="none" xmlns="http://www.w3.org/2000/svg">
<path d="M110.554 549.49C101.599 454.83 203.419 400.488 257.935 400.09C270.58 491.921 288.282 676.541 257.935 680.366C220.002 685.146 121.747 667.816 110.554 549.49Z" fill="#F2B2CD" stroke="black" stroke-width="16" stroke-linecap="round"/>
<path d="M689.446 549.49C698.401 454.83 596.581 400.488 542.065 400.089C529.42 491.921 511.718 676.541 542.065 680.366C579.998 685.146 678.253 667.816 689.446 549.49Z" fill="#F2B2CD" stroke="black" stroke-width="16" stroke-linecap="round"/>
<path fill-rule="evenodd" clip-rule="evenodd" d="M454.29 39.7054C463.397 44.5944 453.543 78.6587 438.176 116.472C571.527 135.502 612.795 255.937 610.953 318.135C609.993 350.546 605.756 396.866 580.346 436.735H580.883C611.551 489.433 638.464 630.571 557.1 720.386C562.941 722.525 571.119 730.651 557.1 746.048C539.575 765.294 425.04 762.544 410.019 754.296C407.441 752.881 404.992 742.599 402.714 726.536C400.435 742.599 397.986 752.881 395.409 754.296C380.388 762.544 265.852 765.294 248.327 746.048C234.308 730.651 242.486 722.525 248.327 720.386C170.71 634.707 191.627 502.323 220.341 444.564C188.722 404.369 177.947 355.293 178.889 318.135C180.67 247.831 208.81 137.489 358.712 117.281C400.007 70.9708 442.425 33.3364 454.29 39.7054Z" fill="#F2B2CD"/>
<path d="M438.176 116.472L430.765 113.46C429.838 115.742 430.013 118.323 431.24 120.458C432.466 122.593 434.608 124.044 437.046 124.392L438.176 116.472ZM454.29 39.7054L450.506 46.754L450.506 46.754L454.29 39.7054ZM610.953 318.135L618.95 318.372L618.95 318.372L610.953 318.135ZM580.346 436.735L573.6 432.436C572.03 434.899 571.927 438.022 573.332 440.583C574.737 443.144 577.425 444.735 580.346 444.735V436.735ZM580.883 436.735L587.797 432.712C586.365 430.25 583.731 428.735 580.883 428.735V436.735ZM557.1 720.386L551.171 715.015C549.384 716.988 548.695 719.719 549.333 722.303C549.97 724.886 551.851 726.984 554.35 727.899L557.1 720.386ZM557.1 746.048L563.015 751.434L563.015 751.434L557.1 746.048ZM410.019 754.296L406.168 761.308L406.168 761.308L410.019 754.296ZM402.714 726.536L410.634 725.413C410.075 721.468 406.698 718.536 402.714 718.536C398.729 718.536 395.352 721.468 394.793 725.413L402.714 726.536ZM395.409 754.296L399.259 761.308L399.259 761.308L395.409 754.296ZM248.327 746.048L242.412 751.434L242.412 751.434L248.327 746.048ZM248.327 720.386L251.078 727.899C253.576 726.984 255.457 724.886 256.094 722.303C256.732 719.719 256.043 716.988 254.256 715.015L248.327 720.386ZM220.341 444.564L227.505 448.126C228.881 445.359 228.54 442.047 226.629 439.618L220.341 444.564ZM178.889 318.135L186.886 318.338L178.889 318.135ZM358.712 117.281L359.781 125.209C361.674 124.954 363.412 124.03 364.683 122.605L358.712 117.281ZM445.588 119.484C453.326 100.441 459.813 82.023 463.2 67.5671C464.878 60.4038 465.916 53.7254 465.772 48.2363C465.648 43.4708 464.536 36.1261 458.073 32.6568L450.506 46.754C448.597 45.7292 449.669 44.4759 449.778 48.6542C449.868 52.1089 449.189 57.2266 447.622 63.9172C444.517 77.1691 438.393 94.6896 430.765 113.46L445.588 119.484ZM618.95 318.372C619.918 285.679 609.631 238.38 581.925 196.688C554.048 154.737 508.479 118.424 439.306 108.553L437.046 124.392C501.224 133.55 542.965 166.969 568.599 205.543C594.404 244.376 603.83 288.393 602.957 317.899L618.95 318.372ZM587.092 441.035C613.726 399.245 617.982 351.065 618.95 318.372L602.957 317.899C602.005 350.028 597.786 394.486 573.6 432.436L587.092 441.035ZM580.883 428.735H580.346V444.735H580.883V428.735ZM563.029 725.757C605.47 678.908 619.404 618.974 619.003 564.583C618.603 510.319 603.939 460.448 587.797 432.712L573.969 440.759C588.495 465.72 602.621 512.767 603.004 564.701C603.385 616.507 590.094 672.05 551.171 715.015L563.029 725.757ZM563.015 751.434C570.835 742.845 574.248 734.315 572.323 726.363C570.458 718.658 564.287 714.498 559.85 712.874L554.35 727.899C555.754 728.413 556.593 729.386 556.772 730.127C556.892 730.622 557.384 733.854 551.185 740.662L563.015 751.434ZM406.168 761.308C409.305 763.031 413.906 764.145 418.518 764.973C423.447 765.859 429.485 766.594 436.194 767.165C449.629 768.308 466.186 768.83 482.788 768.481C499.36 768.132 516.223 766.912 530.198 764.499C537.177 763.294 543.647 761.757 549.086 759.789C554.334 757.89 559.51 755.283 563.015 751.434L551.185 740.662C550.308 741.624 548.071 743.141 543.643 744.744C539.405 746.277 533.935 747.618 527.476 748.733C514.578 750.959 498.583 752.145 482.452 752.484C466.352 752.823 450.364 752.313 437.551 751.222C431.137 750.676 425.625 749.994 421.347 749.225C416.751 748.4 414.487 747.623 413.869 747.284L406.168 761.308ZM394.793 727.66C395.946 735.788 397.176 742.715 398.505 747.896C399.163 750.463 399.911 752.868 400.798 754.866C401.243 755.868 401.807 756.962 402.535 757.988C403.218 758.949 404.376 760.324 406.168 761.308L413.869 747.284C415.017 747.914 415.534 748.658 415.581 748.724C415.673 748.854 415.605 748.787 415.422 748.374C415.054 747.545 414.564 746.11 414.003 743.922C412.893 739.593 411.76 733.348 410.634 725.413L394.793 727.66ZM399.259 761.308C401.052 760.324 402.209 758.949 402.892 757.988C403.62 756.962 404.184 755.868 404.629 754.866C405.516 752.868 406.264 750.463 406.923 747.896C408.251 742.715 409.481 735.788 410.634 727.66L394.793 725.413C393.667 733.348 392.534 739.593 391.424 743.922C390.863 746.11 390.373 747.545 390.005 748.374C389.822 748.787 389.754 748.854 389.846 748.724C389.893 748.658 390.41 747.914 391.558 747.284L399.259 761.308ZM242.412 751.434C245.917 755.283 251.093 757.89 256.341 759.789C261.78 761.757 268.25 763.294 275.229 764.499C289.204 766.912 306.067 768.132 322.639 768.481C339.241 768.83 355.798 768.308 369.233 767.165C375.942 766.594 381.98 765.859 386.909 764.973C391.521 764.145 396.122 763.031 399.259 761.308L391.558 747.284C390.94 747.623 388.676 748.4 384.08 749.225C379.802 749.994 374.291 750.676 367.876 751.222C355.063 752.313 339.075 752.823 322.975 752.484C306.844 752.145 290.849 750.959 277.951 748.733C271.493 747.618 266.022 746.277 261.785 744.744C257.356 743.141 255.119 741.624 254.243 740.662L242.412 751.434ZM245.577 712.874C241.14 714.498 234.969 718.658 233.104 726.363C231.179 734.315 234.592 742.845 242.412 751.434L254.243 740.662C248.043 733.854 248.535 730.622 248.655 730.127C248.834 729.386 249.673 728.413 251.078 727.899L245.577 712.874ZM213.178 441.003C198.218 471.095 185.557 519.909 186.461 572.144C187.367 624.459 201.911 681.065 242.398 725.757L254.256 715.015C217.126 674.028 203.32 621.603 202.459 571.867C201.596 522.05 213.751 475.792 227.505 448.126L213.178 441.003ZM170.891 317.933C169.912 356.583 181.071 407.583 214.054 449.511L226.629 439.618C196.372 401.155 185.983 354.004 186.886 318.338L170.891 317.933ZM357.643 109.353C280.61 119.737 233.978 153.514 206.604 194.477C179.446 235.116 171.802 281.975 170.891 317.933L186.886 318.338C187.756 283.992 195.074 240.527 219.907 203.367C244.523 166.531 286.912 135.032 359.781 125.209L357.643 109.353ZM458.073 32.6568C454.237 30.5974 450.091 30.7805 446.791 31.4888C443.405 32.2156 439.878 33.7089 436.392 35.5691C429.392 39.3037 421.2 45.2591 412.41 52.5974C394.75 67.3415 373.533 88.6397 352.741 111.957L364.683 122.605C385.186 99.612 405.826 78.938 422.664 64.8796C431.124 57.8166 438.342 52.6633 443.923 49.6855C446.727 48.1895 448.783 47.4257 450.149 47.1325C451.601 46.8208 451.376 47.2211 450.506 46.754L458.073 32.6568Z" fill="black"/>
<path d="M499.271 568.774C500.221 534.612 477.42 466.287 402.047 463.817C307.997 463.817 291.522 528.849 290.572 568.774C289.622 608.699 313.374 675.378 402.047 671.262C490.721 667.146 498.321 602.937 499.271 568.774Z" fill="white" stroke="black" stroke-width="13"/>
<circle cx="435.545" cy="286.093" r="35.8152" fill="white" stroke="black" stroke-width="13"/>
<circle cx="436.455" cy="286.093" r="10.3351" fill="black" stroke="black" stroke-width="13"/>
<circle cx="355.428" cy="286.093" r="35.8152" fill="white" stroke="black" stroke-width="13"/>
<circle cx="355.428" cy="286.093" r="10.3351" fill="black" stroke="black" stroke-width="13"/>
<path d="M473.617 357.747C473.617 365.822 466.952 374.857 452.242 382.261C437.908 389.476 417.652 394.127 394.922 394.127C372.193 394.127 351.936 389.476 337.603 382.261C322.892 374.857 316.228 365.822 316.228 357.747C316.228 349.672 322.892 340.637 337.603 333.233C351.936 326.019 372.193 321.368 394.922 321.368C417.652 321.368 437.908 326.019 452.242 333.233C466.952 340.637 473.617 349.672 473.617 357.747Z" fill="#FFF97D" stroke="black" stroke-width="13"/>
</svg>
